<svg xmlns="http://www.w3.org/2000/svg" viewBox="0 11.5 86.9000015258789 35" data-asc="0.93" width="86.9000015258789" height="35"><defs/><g fill="#ffffff"><g transform="translate(0, 0)"><path d="M0 46.50L13.45 11.50L16.55 11.50L30 46.50L26.35 46.50L20.15 30.10L8.80 30.10L3.65 46.50L0 46.50M13.80 14.10L9.15 28.90L19.70 28.90L14.10 14.10L13.80 14.10ZM38.10 11.50L44.80 11.50Q50.10 11.50 53.02 13.73Q55.95 15.95 55.95 19.95Q55.95 23.05 54.13 25.10Q52.30 27.15 48.85 27.85L48.85 28.15Q52.15 28.80 54.25 31.25Q56.35 33.70 57.40 37.30Q58.35 40.60 59.27 42.42Q60.20 44.25 61.33 45.05Q62.45 45.85 64 46.20L64 46.50L61.95 46.50Q59.75 46.50 58.33 45.70Q56.90 44.90 55.90 43Q54.90 41.10 54 37.75Q52.55 32.60 50.15 30.45Q47.75 28.30 44.30 28.30L44 28.30L44 27.40L44.30 27.40Q52.35 27.40 52.35 20Q52.35 12.70 44.80 12.70L41.50 12.70L41.50 46.50L38.10 46.50L38.10 11.50ZM65.40 14.50L65.40 11.50L86.90 11.50L86.90 12.50L73.45 46.50L69.75 46.50L84.70 14.50L65.40 14.50Z"/></g></g></svg>